<svg width="24" height="24" viewBox="0 0 24 24" fill="none" xmlns="http://www.w3.org/2000/svg">
<path d="M4 12.625C3.75 12.625 3.575 12.525 3.475 12.325C3.375 12.1083 3.375 11.9 3.475 11.7C3.575 11.4833 3.75 11.375 4 11.375H20C20.25 11.375 20.425 11.4833 20.525 11.7C20.6417 11.9 20.6417 12.1083 20.525 12.325C20.425 12.525 20.25 12.625 20 12.625H4ZM4 5.625C3.75 5.625 3.575 5.525 3.475 5.325C3.375 5.10833 3.375 4.9 3.475 4.7C3.575 4.48333 3.75 4.375 4 4.375H20C20.25 4.375 20.425 4.48333 20.525 4.7C20.6417 4.9 20.6417 5.10833 20.525 5.325C20.425 5.525 20.25 5.625 20 5.625H4ZM4 19.625C3.75 19.625 3.575 19.525 3.475 19.325C3.375 19.1083 3.375 18.9 3.475 18.7C3.575 18.4833 3.75 18.375 4 18.375H20C20.25 18.375 20.425 18.4833 20.525 18.7C20.6417 18.9 20.6417 19.1083 20.525 19.325C20.425 19.525 20.25 19.625 20 19.625H4Z" fill="#111111"/>
</svg>
