<svg width="40" height="40" viewBox="0 0 40 40" fill="none" xmlns="http://www.w3.org/2000/svg">
<rect width="40" height="40" rx="20" fill="#5739DC"/>
<path d="M19 27.5C17.4667 27.5 16.0417 27.125 14.725 26.375C13.425 25.6083 12.3917 24.575 11.625 23.275C10.875 21.9583 10.5 20.5333 10.5 19C10.5 17.4667 10.875 16.05 11.625 14.75C12.3917 13.4333 13.425 12.4 14.725 11.65C16.0417 10.8833 17.4667 10.5 19 10.5C20.5333 10.5 21.95 10.8833 23.25 11.65C24.5667 12.4 25.6 13.4333 26.35 14.75C27.1167 16.05 27.5 17.4667 27.5 19C27.5 20.5333 27.1167 21.9583 26.35 23.275C25.6 24.575 24.5667 25.6083 23.25 26.375C21.95 27.125 20.5333 27.5 19 27.5ZM19 25.5C20.2333 25.5 21.3417 25.225 22.325 24.675C23.325 24.1083 24.1 23.3333 24.65 22.35C25.2167 21.35 25.5 20.2333 25.5 19C25.5 17.7667 25.2167 16.6583 24.65 15.675C24.1 14.675 23.325 13.9 22.325 13.35C21.3417 12.7833 20.2333 12.5 19 12.5C17.7667 12.5 16.65 12.7833 15.65 13.35C14.6667 13.9 13.8917 14.675 13.325 15.675C12.775 16.6583 12.5 17.7667 12.5 19C12.5 20.2333 12.775 21.35 13.325 22.35C13.8917 23.3333 14.6667 24.1083 15.65 24.675C16.65 25.225 17.7667 25.5 19 25.5ZM23.075 24.5L24.5 23.075L28.7 27.3C28.9833 27.5833 29.0667 27.9 28.95 28.25C28.8333 28.6 28.6 28.8417 28.25 28.975C27.9167 29.0917 27.6 29 27.3 28.7L23.075 24.5Z" fill="white"/>
</svg>
