<svg width="24" height="25" viewBox="0 0 24 25" fill="none" xmlns="http://www.w3.org/2000/svg">
<path d="M12 22.25C10.25 22.25 8.625 21.8167 7.125 20.95C5.625 20.0667 4.43333 18.875 3.55 17.375C2.68333 15.875 2.25 14.25 2.25 12.5C2.25 10.7333 2.68333 9.10833 3.55 7.625C4.43333 6.125 5.625 4.94167 7.125 4.075C8.625 3.19167 10.25 2.75 12 2.75C13.7667 2.75 15.3917 3.19167 16.875 4.075C18.375 4.94167 19.5583 6.125 20.425 7.625C21.3083 9.10833 21.75 10.7333 21.75 12.5C21.75 14.25 21.3083 15.875 20.425 17.375C19.5583 18.875 18.375 20.0667 16.875 20.95C15.3917 21.8167 13.7667 22.25 12 22.25ZM12 20.75C13.5167 20.75 14.9083 20.3833 16.175 19.65C17.4417 18.9167 18.4333 17.925 19.15 16.675C19.8833 15.4083 20.25 14.0167 20.25 12.5C20.25 10.9833 19.8833 9.59167 19.15 8.325C18.4333 7.05833 17.4417 6.06667 16.175 5.35C14.9083 4.61667 13.5167 4.25 12 4.25C10.4833 4.25 9.09167 4.61667 7.825 5.35C6.575 6.06667 5.58333 7.05833 4.85 8.325C4.11667 9.59167 3.75 10.9833 3.75 12.5C3.75 14.0167 4.11667 15.4083 4.85 16.675C5.58333 17.925 6.575 18.9167 7.825 19.65C9.09167 20.3833 10.4833 20.75 12 20.75ZM6.975 13.025C6.75833 12.7917 6.69167 12.55 6.775 12.3C6.85833 12.0333 7.03333 11.8583 7.3 11.775C7.58333 11.6917 7.825 11.7583 8.025 11.975L10.525 14.45L15.975 8.975C16.1917 8.74167 16.4333 8.675 16.7 8.775C16.9667 8.85833 17.1417 9.03333 17.225 9.3C17.3083 9.56667 17.25 9.80833 17.05 10.025L11.075 16.025C10.9083 16.1917 10.725 16.275 10.525 16.275C10.325 16.275 10.15 16.1917 10 16.025L6.975 13.025Z" fill="#5739DC"/>
</svg>
