<svg width="16" height="16" viewBox="0 0 16 16" fill="none" xmlns="http://www.w3.org/2000/svg">
<path d="M11.5333 3.53333L12.4667 4.46667L4.46667 12.4667C4.27778 12.6556 4.06667 12.7111 3.83333 12.6333C3.6 12.5556 3.43889 12.4056 3.35 12.1833C3.27222 11.95 3.33333 11.7333 3.53333 11.5333L11.5333 3.53333ZM11.9833 3.33333C12.1833 3.33333 12.3444 3.4 12.4667 3.53333C12.6 3.65556 12.6667 3.81667 12.6667 4.01667V10.6667C12.6667 10.9444 12.5556 11.1389 12.3333 11.25C12.1111 11.35 11.8889 11.35 11.6667 11.25C11.4444 11.1389 11.3333 10.9444 11.3333 10.6667V4.66667H5.33333C5.05556 4.66667 4.86111 4.55556 4.75 4.33333C4.65 4.11111 4.65 3.88889 4.75 3.66667C4.86111 3.44444 5.05556 3.33333 5.33333 3.33333H11.9833Z" fill="#707070"/>
</svg>
