<svg width="38" height="36" viewBox="0 0 38 36" fill="none" xmlns="http://www.w3.org/2000/svg">
<path d="M19 33C16.625 33 14.3625 32.45 12.2125 31.35L7.8625 32.4375C7.1125 32.6375 6.45 32.625 5.875 32.4C5.3 32.15 4.8875 31.7375 4.6375 31.1625C4.3875 30.5875 4.3625 29.925 4.5625 29.175L5.65 24.7875C4.55 22.6375 4 20.375 4 18C4 15.275 4.675 12.7625 6.025 10.4625C7.375 8.1625 9.1875 6.35 11.4625 5.025C13.7625 3.675 16.275 3 19 3C21.725 3 24.2375 3.675 26.5375 5.025C28.8375 6.35 30.65 8.1625 31.975 10.4625C33.325 12.7625 34 15.275 34 18C34 20.725 33.325 23.2375 31.975 25.5375C30.65 27.8125 28.8375 29.625 26.5375 30.975C24.2375 32.325 21.725 33 19 33ZM7.45 29.8875C7.4 30.1125 7.275 30.125 7.075 29.925C6.875 29.725 6.875 29.6 7.075 29.55L12.1375 28.3125C12.2875 28.2625 12.4375 28.25 12.5875 28.275C12.7625 28.3 12.925 28.3625 13.075 28.4625C14 28.9625 14.95 29.35 15.925 29.625C16.9 29.875 17.925 30 19 30C21.25 30 23.2875 29.475 25.1125 28.425C26.9375 27.375 28.375 25.9375 29.425 24.1125C30.475 22.2875 31 20.25 31 18C31 15.75 30.475 13.7125 29.425 11.8875C28.375 10.0625 26.9375 8.625 25.1125 7.575C23.2875 6.525 21.25 6 19 6C16.75 6 14.7125 6.525 12.8875 7.575C11.0625 8.625 9.625 10.0625 8.575 11.8875C7.525 13.7125 7 15.75 7 18C7 19.075 7.125 20.1 7.375 21.075C7.65 22.05 8.0375 23 8.5375 23.925C8.7375 24.225 8.7875 24.525 8.6875 24.825L7.45 29.8875Z" fill="white"/>
</svg>
