<svg width="20" height="21" viewBox="0 0 20 21" fill="none" xmlns="http://www.w3.org/2000/svg">
<path d="M2.75 10.25C2.5 10 2.42361 9.73611 2.52083 9.45833C2.61806 9.16667 2.8125 8.97222 3.10417 8.875C3.40972 8.77778 3.68056 8.84722 3.91667 9.08333L8.33333 13.4792L16.0833 5.75C16.3333 5.5 16.5972 5.42361 16.875 5.52083C17.1667 5.61805 17.3611 5.81944 17.4583 6.125C17.5556 6.41667 17.4861 6.68056 17.25 6.91667L8.9375 15.25C8.75695 15.4306 8.55556 15.5208 8.33333 15.5208C8.11111 15.5208 7.90972 15.4306 7.72917 15.25L2.75 10.25Z" fill="#111111"/>
</svg>
