<svg width="75" height="46" viewBox="0 0 75 46" fill="none" xmlns="http://www.w3.org/2000/svg">
<g filter="url(#filter0_d_172_738)">
<rect x="10" y="8" width="55" height="26" rx="5" fill="white" shape-rendering="crispEdges"/>
<path d="M20.5801 16.9082C20.5664 18.5625 21.8242 20.0801 23.6152 20.6953L23.0547 21.543C21.6807 21.0508 20.6074 20.0186 20.0742 18.7266C19.5615 20.1553 18.4678 21.2559 17.0254 21.7891L16.4648 20.9277C18.2969 20.2715 19.5137 18.6855 19.5273 16.8398V15.582H20.5801V16.9082ZM25.9941 14.9531V18.1797H27.8262V19.0957H25.9941V22.3223H24.9277V14.9531H25.9941ZM25.9941 22.9238V27.1074H24.9277V23.7988H18.0371V22.9238H25.9941ZM38.9824 14.9531V27.1074H37.957V14.9531H38.9824ZM36.5215 15.2539V26.4785H35.5098V20.2168H33.459V19.3418H35.5098V15.2539H36.5215ZM32.1602 18.4258C32.1602 20.5312 33.1035 22.623 34.7852 23.5938L34.1289 24.3867C32.9326 23.6689 32.085 22.3564 31.668 20.8047C31.2236 22.4795 30.3418 23.9082 29.125 24.6738L28.4414 23.8672C30.1367 22.8555 31.1211 20.6406 31.1211 18.4258V17.2773H28.7832V16.3887H34.3887V17.2773H32.1602V18.4258Z" fill="#BE2623"/>
<path d="M46.75 17.4167V25C46.75 25.4667 46.8944 25.85 47.1833 26.15C47.4833 26.4389 47.8667 26.5833 48.3333 26.5833H53.6667C54.1444 26.5833 54.5278 26.4389 54.8167 26.15C55.1056 25.85 55.25 25.4667 55.25 25V17.4167H46.75ZM56.0833 25C56.0833 25.4333 55.9722 25.8389 55.75 26.2167C55.5389 26.5833 55.25 26.8778 54.8833 27.1C54.5167 27.3111 54.1111 27.4167 53.6667 27.4167H48.3333C47.9 27.4167 47.4944 27.3111 47.1167 27.1C46.75 26.8778 46.4556 26.5833 46.2333 26.2167C46.0222 25.8389 45.9167 25.4333 45.9167 25V16.5833H56.0833V25ZM45 17.4167C44.8333 17.4167 44.7167 17.35 44.65 17.2167C44.5833 17.0722 44.5833 16.9333 44.65 16.8C44.7167 16.6556 44.8333 16.5833 45 16.5833H46.3333V17.4167H45ZM57 16.5833C57.1667 16.5833 57.2833 16.6556 57.35 16.8C57.4278 16.9333 57.4278 17.0722 57.35 17.2167C57.2833 17.35 57.1667 17.4167 57 17.4167H55.6667V16.5833H57ZM53 14.5833C53.1667 14.5833 53.2833 14.6556 53.35 14.8C53.4278 14.9333 53.4278 15.0722 53.35 15.2167C53.2833 15.35 53.1667 15.4167 53 15.4167H49C48.8333 15.4167 48.7167 15.35 48.65 15.2167C48.5833 15.0722 48.5833 14.9333 48.65 14.8C48.7167 14.6556 48.8333 14.5833 49 14.5833H53ZM49.8 23.45C49.6778 23.5722 49.5389 23.6111 49.3833 23.5667C49.2389 23.5222 49.1389 23.4278 49.0833 23.2833C49.0389 23.1389 49.0833 23 49.2167 22.8667L52.2167 19.8667C52.3389 19.7444 52.4722 19.7111 52.6167 19.7667C52.7611 19.8111 52.8556 19.9111 52.9 20.0667C52.9444 20.2111 52.9111 20.3389 52.8 20.45L49.8 23.45ZM49.2167 20.45C49.0944 20.3389 49.0556 20.2111 49.1 20.0667C49.1444 19.9111 49.2389 19.8111 49.3833 19.7667C49.5278 19.7111 49.6667 19.7444 49.8 19.8667L52.8 22.8667C52.9111 22.9889 52.9444 23.1278 52.9 23.2833C52.8556 23.4278 52.7611 23.5278 52.6167 23.5833C52.4722 23.6278 52.3389 23.5833 52.2167 23.45L49.2167 20.45Z" fill="#BE2623"/>
</g>
<defs>
<filter id="filter0_d_172_738" x="0" y="0" width="75" height="46" filterUnits="userSpaceOnUse" color-interpolation-filters="sRGB">
<feFlood flood-opacity="0" result="BackgroundImageFix"/>
<feColorMatrix in="SourceAlpha" type="matrix" values="0 0 0 0 0 0 0 0 0 0 0 0 0 0 0 0 0 0 127 0" result="hardAlpha"/>
<feOffset dy="2"/>
<feGaussianBlur stdDeviation="5"/>
<feComposite in2="hardAlpha" operator="out"/>
<feColorMatrix type="matrix" values="0 0 0 0 0 0 0 0 0 0 0 0 0 0 0 0 0 0 0.1 0"/>
<feBlend mode="normal" in2="BackgroundImageFix" result="effect1_dropShadow_172_738"/>
<feBlend mode="normal" in="SourceGraphic" in2="effect1_dropShadow_172_738" result="shape"/>
</filter>
</defs>
</svg>
