<svg width="38" height="36" viewBox="0 0 38 36" fill="none" xmlns="http://www.w3.org/2000/svg">
<path d="M14.5375 30.6375C11.7375 28.7875 9.275 26.4375 7.15 23.5875C5.05 20.7125 4 17.35 4 13.5C4 11.875 4.4 10.375 5.2 9C6.025 7.6 7.125 6.5 8.5 5.7C9.875 4.9 11.375 4.5 13 4.5C14.375 4.5 15.6625 4.7875 16.8625 5.3625C18.0625 5.9125 19.075 6.6875 19.9 7.6875C20.05 7.8375 19.9375 7.95 19.5625 8.025C19.1875 8.075 18.8125 8.075 18.4375 8.025C18.0875 7.95 17.975 7.8375 18.1 7.6875C18.95 6.6875 19.9625 5.9125 21.1375 5.3625C22.3375 4.7875 23.625 4.5 25 4.5C26.625 4.5 28.125 4.9 29.5 5.7C30.9 6.5 32 7.6 32.8 9C33.6 10.375 34 11.875 34 13.5C34 17.35 32.9375 20.7125 30.8125 23.5875C28.7125 26.4375 26.2625 28.7875 23.4625 30.6375L22.825 31.05C21.575 31.875 20.3 32.2875 19 32.2875C17.725 32.2875 16.4625 31.875 15.2125 31.05L14.5375 30.6375Z" fill="white"/>
</svg>
