<svg width="38" height="36" viewBox="0 0 38 36" fill="none" xmlns="http://www.w3.org/2000/svg">
<path d="M14.5375 30.6375C11.7375 28.7875 9.275 26.4375 7.15 23.5875C5.05 20.7125 4 17.35 4 13.5C4 11.875 4.4 10.375 5.2 9C6.025 7.6 7.125 6.5 8.5 5.7C9.875 4.9 11.375 4.5 13 4.5C14.375 4.5 15.6625 4.7875 16.8625 5.3625C18.0625 5.9125 19.075 6.6875 19.9 7.6875C20.05 7.8375 19.9375 7.95 19.5625 8.025C19.1875 8.075 18.8125 8.075 18.4375 8.025C18.0875 7.95 17.975 7.8375 18.1 7.6875C18.95 6.6875 19.9625 5.9125 21.1375 5.3625C22.3375 4.7875 23.625 4.5 25 4.5C26.625 4.5 28.125 4.9 29.5 5.7C30.9 6.5 32 7.6 32.8 9C33.6 10.375 34 11.875 34 13.5C34 17.35 32.9375 20.7125 30.8125 23.5875C28.7125 26.4375 26.2625 28.7875 23.4625 30.6375L22.825 31.05C21.575 31.875 20.3 32.2875 19 32.2875C17.725 32.2875 16.4625 31.875 15.2125 31.05L14.5375 30.6375ZM16.825 28.5375C17.65 29.0875 18.375 29.3625 19 29.3625C19.65 29.3625 20.3875 29.0875 21.2125 28.5375C21.4625 28.3875 21.7125 28.225 21.9625 28.05C22.2375 27.875 22.5 27.6875 22.75 27.4875C25.05 25.8375 27 23.85 28.6 21.525C30.2 19.175 31 16.5 31 13.5C31 12.35 30.7375 11.325 30.2125 10.425C29.7125 9.5 29 8.7875 28.075 8.2875C27.175 7.7625 26.15 7.5 25 7.5C24.025 7.5 23.1625 7.675 22.4125 8.025C21.6875 8.375 21.025 8.9 20.425 9.6C20.05 10.075 19.575 10.3125 19 10.3125C18.425 10.3125 17.95 10.075 17.575 9.6C16.975 8.9 16.3 8.375 15.55 8.025C14.825 7.675 13.975 7.5 13 7.5C11.85 7.5 10.8125 7.7625 9.8875 8.2875C8.9875 8.7875 8.275 9.5 7.75 10.425C7.25 11.325 7 12.35 7 13.5C7 16.5 7.8 19.175 9.4 21.525C11 23.85 12.95 25.8375 15.25 27.4875C15.5 27.6875 15.7625 27.875 16.0375 28.05C16.3125 28.225 16.575 28.3875 16.825 28.5375Z" fill="white"/>
</svg>
