<svg width="38" height="36" viewBox="0 0 38 36" fill="none" xmlns="http://www.w3.org/2000/svg">
<path d="M7 19.5C6.375 19.5 5.9375 19.25 5.6875 18.75C5.4625 18.25 5.4625 17.75 5.6875 17.25C5.9375 16.75 6.375 16.5 7 16.5H31C31.625 16.5 32.05 16.75 32.275 17.25C32.525 17.75 32.525 18.25 32.275 18.75C32.05 19.25 31.625 19.5 31 19.5H7ZM7 9C6.375 9 5.9375 8.75 5.6875 8.25C5.4625 7.75 5.4625 7.25 5.6875 6.75C5.9375 6.25 6.375 6 7 6H31C31.625 6 32.05 6.25 32.275 6.75C32.525 7.25 32.525 7.75 32.275 8.25C32.05 8.75 31.625 9 31 9H7ZM7 30C6.375 30 5.9375 29.75 5.6875 29.25C5.4625 28.75 5.4625 28.25 5.6875 27.75C5.9375 27.25 6.375 27 7 27H31C31.625 27 32.05 27.25 32.275 27.75C32.525 28.25 32.525 28.75 32.275 29.25C32.05 29.75 31.625 30 31 30H7Z" fill="white"/>
</svg>
