<svg width="80" height="80" viewBox="0 0 80 80" fill="none" xmlns="http://www.w3.org/2000/svg">
<g opacity="0.5">
<rect width="80" height="80" rx="40" fill="#111111"/>
<path d="M47.9 54C46.2333 54 44.8333 53.4333 43.7 52.3C42.5667 51.1667 42 49.7667 42 48.1V31.9C42 30.2 42.5667 28.8 43.7 27.7C44.8333 26.5667 46.2333 26 47.9 26H48.1C49.8 26 51.2 26.5667 52.3 27.7C53.4333 28.8 54 30.2 54 31.9V48.1C54 49.7667 53.4333 51.1667 52.3 52.3C51.2 53.4333 49.8 54 48.1 54H47.9ZM31.9 54C30.2333 54 28.8333 53.4333 27.7 52.3C26.5667 51.1667 26 49.7667 26 48.1V31.9C26 30.2 26.5667 28.8 27.7 27.7C28.8333 26.5667 30.2333 26 31.9 26H32.1C33.8 26 35.2 26.5667 36.3 27.7C37.4333 28.8 38 30.2 38 31.9V48.1C38 49.7667 37.4333 51.1667 36.3 52.3C35.2 53.4333 33.8 54 32.1 54H31.9Z" fill="white"/>
</g>
</svg>
