<svg width="80" height="80" viewBox="0 0 80 80" fill="none" xmlns="http://www.w3.org/2000/svg">
<g opacity="0.5">
<rect width="80" height="80" rx="40" fill="#111111"/>
<path d="M35.75 53.4C34.7167 54 33.6667 54.2167 32.6 54.05C31.5667 53.85 30.7 53.35 30 52.55C29.3333 51.7167 29 50.7167 29 49.55V30.45C29 29.2833 29.3333 28.3 30 27.5C30.7 26.6667 31.5667 26.1667 32.6 26C33.6667 25.8 34.7167 25.9833 35.75 26.55L52.25 36.1C53.2833 36.7 53.9833 37.5 54.35 38.5C54.7167 39.5 54.7167 40.5 54.35 41.5C53.9833 42.5 53.2833 43.2833 52.25 43.85L35.75 53.4Z" fill="white"/>
</g>
</svg>
