<svg width="38" height="36" viewBox="0 0 38 36" fill="none" xmlns="http://www.w3.org/2000/svg">
<path d="M10 16.5C9.5 16.5 9.125 16.625 8.875 16.875C8.625 17.125 8.5 17.5 8.5 18C8.5 18.5 8.625 18.875 8.875 19.125C9.125 19.375 9.5 19.5 10 19.5C10.5 19.5 10.875 19.375 11.125 19.125C11.375 18.875 11.5 18.5 11.5 18C11.5 17.5 11.375 17.125 11.125 16.875C10.875 16.625 10.5 16.5 10 16.5ZM10 13.5C10.8 13.5 11.55 13.7 12.25 14.1C12.95 14.5 13.5 15.05 13.9 15.75C14.3 16.45 14.5 17.2 14.5 18C14.5 18.8 14.3 19.55 13.9 20.25C13.5 20.925 12.95 21.475 12.25 21.9C11.55 22.3 10.8 22.5 10 22.5C9.2 22.5 8.45 22.3 7.75 21.9C7.075 21.475 6.525 20.925 6.1 20.25C5.7 19.55 5.5 18.8 5.5 18C5.5 17.2 5.7 16.45 6.1 15.75C6.525 15.05 7.075 14.5 7.75 14.1C8.45 13.7 9.2 13.5 10 13.5ZM26.5 7.5C26 7.5 25.625 7.625 25.375 7.875C25.125 8.125 25 8.5 25 9C25 9.5 25.125 9.875 25.375 10.125C25.625 10.375 26 10.5 26.5 10.5C27 10.5 27.375 10.375 27.625 10.125C27.875 9.875 28 9.5 28 9C28 8.5 27.875 8.125 27.625 7.875C27.375 7.625 27 7.5 26.5 7.5ZM26.5 4.5C27.3 4.5 28.05 4.7 28.75 5.1C29.45 5.5 30 6.05 30.4 6.75C30.8 7.45 31 8.2 31 9C31 9.8 30.8 10.55 30.4 11.25C30 11.925 29.45 12.475 28.75 12.9C28.05 13.3 27.3 13.5 26.5 13.5C25.7 13.5 24.95 13.3 24.25 12.9C23.575 12.475 23.025 11.925 22.6 11.25C22.2 10.55 22 9.8 22 9C22 8.2 22.2 7.45 22.6 6.75C23.025 6.05 23.575 5.5 24.25 5.1C24.95 4.7 25.7 4.5 26.5 4.5ZM26.5 25.5C26 25.5 25.625 25.625 25.375 25.875C25.125 26.125 25 26.5 25 27C25 27.5 25.125 27.875 25.375 28.125C25.625 28.375 26 28.5 26.5 28.5C27 28.5 27.375 28.375 27.625 28.125C27.875 27.875 28 27.5 28 27C28 26.5 27.875 26.125 27.625 25.875C27.375 25.625 27 25.5 26.5 25.5ZM26.5 22.5C27.3 22.5 28.05 22.7 28.75 23.1C29.45 23.5 30 24.05 30.4 24.75C30.8 25.45 31 26.2 31 27C31 27.8 30.8 28.55 30.4 29.25C30 29.925 29.45 30.475 28.75 30.9C28.05 31.3 27.3 31.5 26.5 31.5C25.7 31.5 24.95 31.3 24.25 30.9C23.575 30.475 23.025 29.925 22.6 29.25C22.2 28.55 22 27.8 22 27C22 26.2 22.2 25.45 22.6 24.75C23.025 24.05 23.575 23.5 24.25 23.1C24.95 22.7 25.7 22.5 26.5 22.5ZM23.1625 26.8875L11.9125 20.7375L13.3375 18.1125L24.5875 24.2625L23.1625 26.8875ZM11.9125 15.2625L23.1625 9.1125L24.5875 11.7375L13.3375 17.8875L11.9125 15.2625Z" fill="white"/>
</svg>
