<svg width="36" height="41" viewBox="0 0 36 41" fill="none" xmlns="http://www.w3.org/2000/svg">
<path d="M13 20.75C12.3333 20.75 11.7083 20.5833 11.125 20.25C10.5583 19.9 10.1 19.4417 9.75 18.875C9.41667 18.2917 9.25 17.6667 9.25 17V11.25C9.25 10.75 9.35 10.2667 9.55 9.8C9.75 9.33333 10.0167 8.93333 10.35 8.6L15.35 3.6C15.8333 3.11667 16.3917 2.79167 17.025 2.625C17.675 2.44167 18.325 2.44167 18.975 2.625C19.625 2.79167 20.1833 3.11667 20.65 3.6L25.65 8.6C26 8.93333 26.2667 9.33333 26.45 9.8C26.65 10.2667 26.75 10.75 26.75 11.25V17C26.75 17.6667 26.5833 18.2917 26.25 18.875C25.9167 19.4417 25.4583 19.9 24.875 20.25C24.3083 20.5833 23.6833 20.75 23 20.75H13ZM23 19.25C23.45 19.25 23.8417 19.1583 24.175 18.975C24.525 18.775 24.7917 18.5083 24.975 18.175C25.1583 17.825 25.25 17.4333 25.25 17V11.25C25.25 10.9667 25.2167 10.7083 25.15 10.475C25.1 10.325 25.025 10.1833 24.925 10.05C24.8417 9.91667 24.7333 9.78333 24.6 9.65L19.6 4.65C19.1167 4.16667 18.5833 3.925 18 3.925C17.4167 3.925 16.8833 4.16667 16.4 4.65L11.4 9.65C11.2667 9.78333 11.1583 9.91667 11.075 10.05C10.9917 10.1833 10.925 10.325 10.875 10.475C10.7917 10.7083 10.75 10.9667 10.75 11.25V17C10.75 17.4333 10.8417 17.825 11.025 18.175C11.225 18.5083 11.4917 18.775 11.825 18.975C12.175 19.1583 12.5667 19.25 13 19.25H23ZM19.25 20V13.45C19.25 13.2 19.2 12.9833 19.1 12.8C19.0167 12.6167 18.8833 12.4833 18.7 12.4C18.5167 12.3 18.3 12.25 18.05 12.25H17.95C17.7 12.25 17.4833 12.3 17.3 12.4C17.1333 12.4833 17 12.6167 16.9 12.8C16.8 12.9833 16.75 13.2 16.75 13.45V20H15.25V13.45C15.25 12.7 15.5167 12.0667 16.05 11.55C16.5833 11.0167 17.2167 10.75 17.95 10.75H18.05C18.8 10.75 19.4333 11.0167 19.95 11.55C20.4833 12.0667 20.75 12.7 20.75 13.45V20H19.25Z" fill="#C9CDD2"/>
<path d="M21.5684 34.832V37.8086H14.3965V34.832H21.5684ZM15.3105 35.5469V37.0938H20.666V35.5469H15.3105ZM22.1777 28.4102V29.125H13.7285V28.4102H17.5254V27.3789H18.4395V28.4102H22.1777ZM17.9824 29.5469C20.1387 29.5586 21.3574 30.0508 21.3574 31.0234C21.3574 31.9375 20.3086 32.4238 18.4395 32.4883V33.2969H22.7285V34.0352H13.2363V33.2969H17.5254V32.4883C15.6504 32.4238 14.5957 31.9375 14.5957 31.0234C14.5957 30.0508 15.8262 29.5586 17.9824 29.5469ZM17.9824 30.1914C16.4473 30.2031 15.5684 30.4844 15.5801 31.0234C15.5684 31.5508 16.4473 31.8555 17.9824 31.8555C19.5059 31.8555 20.3848 31.5508 20.3848 31.0234C20.3848 30.4844 19.5059 30.2031 17.9824 30.1914Z" fill="#C9CDD2"/>
</svg>
