<svg width="36" height="41" viewBox="0 0 36 41" fill="none" xmlns="http://www.w3.org/2000/svg">
<path d="M15.175 20.2C13.3417 18.9833 11.725 17.4417 10.325 15.575C8.94167 13.6917 8.25 11.5 8.25 9C8.25 7.95 8.50833 6.99167 9.025 6.125C9.54167 5.24167 10.2417 4.54167 11.125 4.025C12.0083 3.50833 12.9667 3.25 14 3.25C14.8833 3.25 15.7 3.43333 16.45 3.8C17.2167 4.15 17.875 4.65 18.425 5.3C18.5083 5.4 18.4583 5.475 18.275 5.525C18.0917 5.575 17.9083 5.575 17.725 5.525C17.5417 5.475 17.5 5.4 17.6 5.3C18.1333 4.65 18.7833 4.15 19.55 3.8C20.3167 3.43333 21.1333 3.25 22 3.25C23.05 3.25 24.0083 3.50833 24.875 4.025C25.7583 4.54167 26.4583 5.24167 26.975 6.125C27.4917 6.99167 27.75 7.95 27.75 9C27.75 11.5 27.0583 13.6917 25.675 15.575C24.2917 17.4417 22.6833 18.9833 20.85 20.2L20.4 20.5C19.6167 21.0167 18.8167 21.275 18 21.275C17.2 21.275 16.4 21.0167 15.6 20.5L15.175 20.2ZM16.4 19.25C17 19.6167 17.5333 19.8 18 19.8C18.4833 19.8 19.0167 19.6167 19.6 19.25C19.7667 19.15 19.9417 19.0417 20.125 18.925C20.3083 18.7917 20.4833 18.6583 20.65 18.525C22.2167 17.3917 23.5417 16.0333 24.625 14.45C25.7083 12.85 26.25 11.0333 26.25 9C26.25 8.2 26.0667 7.475 25.7 6.825C25.3333 6.175 24.825 5.66667 24.175 5.3C23.525 4.93333 22.8 4.75 22 4.75C21.3333 4.75 20.7333 4.875 20.2 5.125C19.6667 5.375 19.1917 5.75 18.775 6.25C18.575 6.48333 18.3167 6.6 18 6.6C17.7 6.6 17.45 6.48333 17.25 6.25C16.8333 5.75 16.3583 5.375 15.825 5.125C15.2917 4.875 14.6833 4.75 14 4.75C13.2 4.75 12.475 4.93333 11.825 5.3C11.1917 5.66667 10.6833 6.175 10.3 6.825C9.93333 7.475 9.75 8.2 9.75 9C9.75 11.0333 10.2917 12.85 11.375 14.45C12.475 16.0333 13.8 17.3917 15.35 18.525C15.5333 18.6583 15.7083 18.7917 15.875 18.925C16.0583 19.0417 16.2333 19.15 16.4 19.25Z" fill="#C9CDD2"/>
<path d="M8.05664 30.6367V31.8672H12.3926V32.6289H2.85352V31.8672H7.1543V30.6367H8.05664ZM11.5137 27.8594V28.5859H8.2207C8.29688 29.6523 10.043 30.4316 11.8535 30.5781L11.5488 31.2695C9.81445 31.1055 8.17969 30.4316 7.62305 29.3359C7.05469 30.4316 5.41992 31.1055 3.67383 31.2695L3.36914 30.5781C5.16797 30.4316 6.91406 29.6523 7.01367 28.5859H3.73242V27.8594H11.5137ZM11.4902 34.0117V34.7383H3.75586V34.0117H7.1543V33.0273H8.06836V34.0117H11.4902ZM7.61133 35.2539C9.61523 35.2539 10.7637 35.7227 10.7637 36.625C10.7637 37.5391 9.61523 38.0078 7.61133 38.0078C5.58398 38.0078 4.4707 37.5391 4.4707 36.625C4.4707 35.7227 5.58398 35.2539 7.61133 35.2539ZM7.61133 35.8984C6.20508 35.9102 5.39648 36.1445 5.39648 36.625C5.39648 37.1055 6.20508 37.375 7.61133 37.3633C9.0293 37.375 9.81445 37.1055 9.82617 36.625C9.81445 36.1445 9.0293 35.9102 7.61133 35.8984ZM16.0254 28.3398C17.5605 28.3516 18.6504 29.7578 18.6621 31.9727C18.6504 34.1875 17.5605 35.5938 16.0254 35.5938C14.4785 35.5938 13.4004 34.1875 13.4004 31.9727C13.4004 29.7578 14.4785 28.3516 16.0254 28.3398ZM16.0254 29.1602C14.9941 29.1719 14.2676 30.2734 14.2676 31.9727C14.2676 33.6719 14.9941 34.7734 16.0254 34.7734C17.0684 34.7734 17.7715 33.6719 17.7715 31.9727C17.7715 30.2734 17.0684 29.1719 16.0254 29.1602ZM21.2988 27.5312V31.6914H23.0449V32.4883H21.2988V37.9492H20.3848V27.5312H21.2988ZM33.1465 35.8398V36.6133H23.6074V35.8398H25.9746V33.0273C25.084 32.5645 24.5449 31.8145 24.5449 30.8711C24.5449 29.2539 26.127 28.1992 28.3535 28.1875C30.5801 28.1992 32.1621 29.2539 32.1621 30.8711C32.1621 31.7969 31.6406 32.541 30.7793 33.0039V35.8398H33.1465ZM28.3535 28.9492C26.6426 28.9375 25.4355 29.7109 25.4355 30.8711C25.4355 32.0312 26.6426 32.8164 28.3535 32.8164C30.0527 32.8164 31.2715 32.0312 31.2715 30.8711C31.2715 29.7109 30.0527 28.9375 28.3535 28.9492ZM26.877 35.8398H29.8535V33.3555C29.4023 33.4785 28.8984 33.543 28.3535 33.543C27.8203 33.543 27.3223 33.4844 26.877 33.3672V35.8398Z" fill="#C9CDD2"/>
</svg>
