<svg width="58" height="58" viewBox="0 0 58 58" fill="none" xmlns="http://www.w3.org/2000/svg">
<rect width="58" height="58" rx="29" fill="url(#paint0_linear_247_1405)"/>
<path d="M25.625 38.75C24.95 39.125 24.2625 39.2625 23.5625 39.1625C22.8625 39.0375 22.275 38.7 21.8 38.15C21.35 37.6 21.125 36.9375 21.125 36.1625V21.8375C21.125 21.0625 21.35 20.4 21.8 19.85C22.275 19.3 22.8625 18.9625 23.5625 18.8375C24.2625 18.7125 24.95 18.85 25.625 19.25L38 26.4125C38.7 26.7875 39.1625 27.3125 39.3875 27.9875C39.6375 28.6625 39.6375 29.3375 39.3875 30.0125C39.1625 30.6625 38.7 31.1875 38 31.5875L25.625 38.75ZM23.375 36.9875C23.375 37.3125 23.35 37.5125 23.3 37.5875C23.25 37.6625 23.25 37.6625 23.3 37.5875C23.35 37.4875 23.5125 37.3625 23.7875 37.2125L37.625 29.1875C37.875 29.0375 38.05 28.975 38.15 29C38.25 29 38.25 29.0125 38.15 29.0375C38.05 29.0375 37.875 28.95 37.625 28.775L23.7875 20.75C23.5125 20.6 23.35 20.4875 23.3 20.4125C23.25 20.3125 23.25 20.3125 23.3 20.4125C23.35 20.4875 23.375 20.675 23.375 20.975V36.9875Z" fill="white"/>
<defs>
<linearGradient id="paint0_linear_247_1405" x1="29" y1="0" x2="29" y2="58" gradientUnits="userSpaceOnUse">
<stop offset="0.335227" stop-color="#BE2623"/>
<stop offset="1" stop-color="#5739DC"/>
</linearGradient>
</defs>
</svg>
