<svg width="36" height="41" viewBox="0 0 36 41" fill="none" xmlns="http://www.w3.org/2000/svg">
<path d="M13 4.75C12.3333 4.75 11.7917 4.95833 11.375 5.375C10.9583 5.775 10.75 6.31667 10.75 7V7.25H25.25V7C25.25 6.31667 25.0417 5.775 24.625 5.375C24.225 4.95833 23.6833 4.75 23 4.75H13ZM23 3.25C23.6833 3.25 24.3083 3.41667 24.875 3.75C25.4583 4.08333 25.9167 4.54167 26.25 5.125C26.5833 5.69167 26.75 6.31667 26.75 7V8.75H9.25V7C9.25 6.31667 9.41667 5.69167 9.75 5.125C10.0833 4.54167 10.5333 4.08333 11.1 3.75C11.6833 3.41667 12.3167 3.25 13 3.25H23ZM10.75 17C10.75 17.6667 10.9583 18.2083 11.375 18.625C11.7917 19.0417 12.3333 19.25 13 19.25H23C23.6833 19.25 24.225 19.0417 24.625 18.625C25.0417 18.2083 25.25 17.6667 25.25 17V8.75H10.75V17ZM26.75 7.25V17C26.75 17.6833 26.5833 18.3167 26.25 18.9C25.9167 19.4667 25.4583 19.9167 24.875 20.25C24.3083 20.5833 23.6833 20.75 23 20.75H13C12.3167 20.75 11.6833 20.5833 11.1 20.25C10.5333 19.9167 10.0833 19.4667 9.75 18.9C9.41667 18.3167 9.25 17.6833 9.25 17V7.25H26.75ZM12.25 2C12.25 1.68333 12.375 1.46667 12.625 1.35C12.875 1.23333 13.125 1.23333 13.375 1.35C13.625 1.46667 13.75 1.68333 13.75 2V4H12.25V2ZM22.25 4V2C22.25 1.68333 22.375 1.46667 22.625 1.35C22.875 1.23333 23.125 1.23333 23.375 1.35C23.625 1.46667 23.75 1.68333 23.75 2V4H22.25Z" fill="#303030"/>
<path d="M12.3926 33.8477V34.6094H8.05664V37.9492H7.1543V34.6094H2.85352V33.8477H12.3926ZM11.3145 32.0195V32.7695H4.13086V28.0234H11.1973V28.7734H5.04492V29.9922H10.9512V30.7305H5.04492V32.0195H11.3145ZM22.1543 27.5312V37.9492H21.2637V27.5312H22.1543ZM20.0215 27.7891V37.4102H19.1426V32.2891H16.8691V31.5156H19.1426V27.7891H20.0215ZM17.5723 28.8203V29.582H14.5371V34.668C16.0371 34.6621 16.9863 34.5977 18.1113 34.3516L18.2051 35.1367C16.998 35.3828 15.9785 35.4297 14.3027 35.4414H13.6465V28.8203H17.5723ZM32.1973 27.5312V37.9727H31.2715V27.5312H32.1973ZM26.6543 28.3398C28.2012 28.3516 29.3145 29.7578 29.3145 31.9727C29.3145 34.1875 28.2012 35.5938 26.6543 35.5938C25.0957 35.5938 23.9941 34.1875 23.9941 31.9727C23.9941 29.7578 25.0957 28.3516 26.6543 28.3398ZM26.6543 29.1602C25.6113 29.1719 24.8848 30.2734 24.8848 31.9727C24.8848 33.6719 25.6113 34.7734 26.6543 34.7734C27.6973 34.7734 28.4238 33.6719 28.4238 31.9727C28.4238 30.2734 27.6973 29.1719 26.6543 29.1602Z" fill="#303030"/>
</svg>
