<svg width="9" height="16" viewBox="0 0 9 16" fill="none" xmlns="http://www.w3.org/2000/svg">
<path d="M0.475 1.525C0.258333 1.29167 0.191667 1.05 0.275 0.799998C0.358334 0.533332 0.533334 0.358332 0.8 0.274999C1.08333 0.191666 1.325 0.258333 1.525 0.474999L8.55 7.475C8.71667 7.64167 8.8 7.81667 8.8 8C8.8 8.18333 8.71667 8.35833 8.55 8.525L1.525 15.525C1.325 15.725 1.09167 15.7833 0.825001 15.7C0.558334 15.6167 0.375 15.45 0.275 15.2C0.191667 14.9333 0.258333 14.6917 0.475 14.475L6.95 8L0.475 1.525Z" fill="#C9CDD2"/>
</svg>
