<svg width="76" height="76" viewBox="0 0 76 76" fill="none" xmlns="http://www.w3.org/2000/svg">
<g clip-path="url(#clip0_195_843)">
<path d="M38 76C58.9868 76 76 58.9868 76 38C76 17.0132 58.9868 0 38 0C17.0132 0 0 17.0132 0 38C0 58.9868 17.0132 76 38 76Z" fill="#F7F7FB"/>
<path d="M38 25.08C42.1974 25.08 45.6 21.6774 45.6 17.48C45.6 13.2826 42.1974 9.88 38 9.88C33.8027 9.88 30.4 13.2826 30.4 17.48C30.4 21.6774 33.8027 25.08 38 25.08Z" fill="#D9D9D9"/>
<path d="M52.896 43.776C52.896 51.9992 45.7596 66.12 37.5364 66.12C29.3132 66.12 23.0964 51.9992 23.0964 43.776C23.0964 39.8253 24.6658 36.0365 27.4594 33.2429C30.2529 30.4494 34.0418 28.88 37.9924 28.88C41.9431 28.88 45.732 30.4494 48.5255 33.2429C51.319 36.0365 52.8884 39.8253 52.8884 43.776H52.896Z" fill="#D9D9D9"/>
</g>
<defs>
<clipPath id="clip0_195_843">
<rect width="76" height="76" fill="white"/>
</clipPath>
</defs>
</svg>
