<svg width="87" height="28" viewBox="0 0 87 28" fill="none" xmlns="http://www.w3.org/2000/svg">
<g id="&#236;&#158;&#144;&#236;&#130;&#176; 8 2" clip-path="url(#clip0_193_683)">
<g id="&#235;&#160;&#136;&#236;&#157;&#180;&#236;&#150;&#180; 2">
<g id="&#235;&#160;&#136;&#236;&#157;&#180;&#236;&#150;&#180; 1">
<path id="Vector" d="M14.2162 2.45814H20.5545V26.7011H18.5368L6.31316 14.7573V26.4769H0V2.2466H2.03447L14.1994 14.1481L14.2162 2.45814ZM36.1843 14.9096L28.6085 3.04201L21.8758 4.20127L36.6793 26.2315L39.4982 25.7449L46.256 0L39.4311 1.17619L36.1843 14.9096ZM58.0643 2.66969L51.877 1.40042L47.1285 24.8988L62.2298 28L63.4127 22.1402L54.4987 20.3083L58.0643 2.66969ZM82.9269 17.829C81.5426 19.3648 79.8647 20.4944 77.8931 20.7017C74.5373 21.0529 71.0724 18.6582 70.6948 14.9604C70.3173 11.2626 73.0733 8.19099 76.7102 7.81445C78.4552 7.63252 80.4855 8.30523 82.0543 9.5068L85.1879 4.45935C82.5635 2.49128 79.3321 1.52581 76.0684 1.73466C68.7023 2.50045 63.5931 8.50408 64.323 15.5781C65.0864 23.0626 71.8316 27.3865 78.5055 26.6927C81.7893 26.3515 84.8237 24.7706 87 22.2672L82.9269 17.829Z" fill="url(#paint0_linear_193_683)"/>
</g>
</g>
</g>
<defs>
<linearGradient id="paint0_linear_193_683" x1="0" y1="14" x2="87" y2="14" gradientUnits="userSpaceOnUse">
<stop stop-color="#5739DC"/>
<stop offset="0.11" stop-color="#5938D9"/>
<stop offset="0.14" stop-color="#5B38D7"/>
<stop offset="0.24" stop-color="#5E37D4"/>
<stop offset="0.25" stop-color="#5F37D3"/>
<stop offset="0.29" stop-color="#6336CF"/>
<stop offset="0.34" stop-color="#6E34C2"/>
<stop offset="0.38" stop-color="#812FAC"/>
<stop offset="0.43" stop-color="#9B2A8E"/>
<stop offset="0.48" stop-color="#BD2267"/>
<stop offset="0.52" stop-color="#E11A3D"/>
<stop offset="0.54" stop-color="#CD1F54"/>
<stop offset="0.58" stop-color="#AD2678"/>
<stop offset="0.63" stop-color="#932C97"/>
<stop offset="0.67" stop-color="#7D31B1"/>
<stop offset="0.73" stop-color="#6C34C4"/>
<stop offset="0.79" stop-color="#6037D2"/>
<stop offset="0.86" stop-color="#5939DA"/>
<stop offset="1" stop-color="#5739DC"/>
</linearGradient>
<clipPath id="clip0_193_683">
<rect width="87" height="28" fill="white"/>
</clipPath>
</defs>
</svg>
